<svg data-v-423bf9ae="" xmlns="http://www.w3.org/2000/svg" viewBox="0 0 514 90" class="iconLeft"><!----><!----><!----><g data-v-423bf9ae="" id="546bd90b-b53f-4443-9b0a-2f5123258431" fill="#2F1911" transform="matrix(6.006006240844727,0,0,6.006006240844727,157.59027099609375,-8.903908729553223)"><path d="M0.20 6.83L0.20 7.98L2.10 7.98L2.10 13.78L3.42 13.78L3.42 7.98L5.38 7.98L5.38 6.83L3.42 6.83L3.42 5.52C3.42 5.24 3.53 5.12 3.78 5.12L5.01 5.12L5.01 3.98L3.28 3.98C2.58 3.98 2.10 4.45 2.10 5.18L2.10 6.83ZM6.10 10.30C6.10 12.46 7.62 13.97 9.63 13.97C11.65 13.97 13.16 12.46 13.16 10.30C13.16 8.15 11.65 6.64 9.63 6.64C7.62 6.64 6.10 8.15 6.10 10.30ZM7.42 10.30C7.42 8.76 8.32 7.84 9.63 7.84C10.95 7.84 11.84 8.76 11.84 10.30C11.84 11.84 10.95 12.77 9.63 12.77C8.32 12.77 7.42 11.84 7.42 10.30ZM14.22 10.30C14.22 12.46 15.74 13.97 17.75 13.97C19.77 13.97 21.28 12.46 21.28 10.30C21.28 8.15 19.77 6.64 17.75 6.64C15.74 6.64 14.22 8.15 14.22 10.30ZM15.54 10.30C15.54 8.76 16.44 7.84 17.75 7.84C19.07 7.84 19.96 8.76 19.96 10.30C19.96 11.84 19.07 12.77 17.75 12.77C16.44 12.77 15.54 11.84 15.54 10.30ZM29.40 3.98L28.08 3.98L28.08 7.92L27.92 7.92C27.54 7.29 26.91 6.64 25.56 6.64C23.76 6.64 22.34 8.15 22.34 10.30C22.34 12.46 23.76 13.97 25.56 13.97C26.91 13.97 27.54 13.31 27.92 12.68L28.11 12.68L28.11 13.78L29.40 13.78ZM25.90 7.81C27.24 7.81 28.08 8.76 28.08 10.30C28.08 11.84 27.24 12.80 25.90 12.80C24.58 12.80 23.66 11.90 23.66 10.30C23.66 8.71 24.58 7.81 25.90 7.81ZM35.56 3.98L35.56 13.78L36.88 13.78L36.88 10.11C36.88 8.68 37.67 7.87 38.95 7.87C40.07 7.87 40.71 8.48 40.71 9.67L40.71 13.78L42.03 13.78L42.03 9.56C42.03 7.67 40.80 6.72 39.35 6.72C38.00 6.72 37.37 7.35 37.04 7.99L36.88 7.99L36.88 3.98ZM50.29 13.78L50.29 6.83L48.97 6.83L48.97 10.50C48.97 11.93 48.17 12.74 46.90 12.74C45.78 12.74 45.14 12.12 45.14 10.93L45.14 6.83L43.82 6.83L43.82 11.05C43.82 12.94 45.05 13.89 46.49 13.89C47.85 13.89 48.48 13.26 48.80 12.61L49.00 12.61L49.00 13.78ZM52.25 3.98L52.25 13.78L53.54 13.78L53.54 12.68L53.73 12.68C54.11 13.31 54.74 13.97 56.08 13.97C57.89 13.97 59.30 12.46 59.30 10.30C59.30 8.15 57.89 6.64 56.08 6.64C54.74 6.64 54.11 7.29 53.73 7.92L53.56 7.92L53.56 3.98ZM55.75 7.81C57.06 7.81 57.99 8.71 57.99 10.30C57.99 11.90 57.06 12.80 55.75 12.80C54.40 12.80 53.56 11.84 53.56 10.30C53.56 8.76 54.40 7.81 55.75 7.81Z"></path></g><defs data-v-423bf9ae=""><linearGradient data-v-423bf9ae="" gradientTransform="rotate(25)" id="0678d28a-ca49-49cf-9d7e-c4527b7f32fc" x1="0%" y1="0%" x2="100%" y2="0%"><stop data-v-423bf9ae="" offset="0%" style="stop-color: rgb(184, 41, 73); stop-opacity: 1;"></stop><stop data-v-423bf9ae="" offset="100%" style="stop-color: rgb(233, 184, 76); stop-opacity: 1;"></stop></linearGradient></defs><g data-v-423bf9ae="" id="ef00839b-16c4-42b6-bd24-54bad81db6ed" transform="matrix(1.4462943077087402,0,0,1.4462943077087402,-2.2963569164276123,-26.42915916442871)" stroke="none" fill="url(#0678d28a-ca49-49cf-9d7e-c4527b7f32fc)"><path d="M67.936 30.522c3.099 0 5.908-2.417 6.398-5.503.257-1.616-.152-3.152-1.152-4.325-.98-1.148-2.449-1.807-4.031-1.807-3.099 0-5.909 2.417-6.4 5.504-.256 1.616.154 3.152 1.154 4.324.979 1.148 2.449 1.807 4.031 1.807zM66.7 25.019c.181-1.136 1.325-2.132 2.448-2.132.416 0 .768.144.988.404.232.271.316.652.245 1.1-.18 1.135-1.323 2.131-2.448 2.131-.414 0-.767-.144-.988-.404-.231-.272-.316-.652-.245-1.099zM29.589 66.084a2 2 0 0 0 1.975 2.314h61.551c.982 0 1.82-.715 1.976-1.687 1.65-10.375-.394-19.548-5.754-25.829-4.897-5.739-12.457-8.772-21.86-8.772-7.649 0-14.384 2.309-19.992 6.028-.045-.003-.088-.014-.133-.014H21.769a2 2 0 0 0 0 4h20.674a40.907 40.907 0 0 0-2.604 2.666H4.018a2 2 0 0 0 0 4h32.664a43.576 43.576 0 0 0-2.925 4.834H10.018a2 2 0 0 0 0 4h21.918c-1.103 2.79-1.898 5.64-2.347 8.46zm37.888-29.972c8.313 0 14.646 2.479 18.817 7.369 4.24 4.968 6.058 12.521 5.079 20.917H33.99c3.244-14.114 15.586-28.286 33.487-28.286zm-7.575 4.613c-7.998 2.606-14.733 8.672-17.577 15.83a1.999 1.999 0 0 0 1.121 2.596c.242.099.492.144.738.144.795 0 1.548-.479 1.859-1.262 2.379-5.988 8.307-11.29 15.1-13.503a1.997 1.997 0 0 0 1.281-2.521 1.997 1.997 0 0 0-2.522-1.284zm36.907 31.713c-.879-.983-2.135-1.526-3.535-1.526H28.7c-2.695 0-5.143 2.103-5.571 4.787-.223 1.399.152 2.795 1.03 3.821.876 1.027 2.139 1.595 3.553 1.595h64.651c2.695 0 5.143-2.104 5.582-4.875.166-1.445-.238-2.795-1.136-3.802zm-4.446 4.675h-64.65c-.231 0-.403-.064-.511-.189-.118-.139-.162-.352-.123-.598.129-.811.962-1.416 1.621-1.416h64.571c.174 0 .41.033.552.191.13.145.183.387.159.596-.128.811-.961 1.416-1.619 1.416z"></path></g><!----></svg>