<svg width="163" height="163" viewBox="0 0 163 163" fill="none" xmlns="http://www.w3.org/2000/svg">
<g filter="url(#filter0_d_814_7048)">
<rect x="35" y="5" width="93" height="93" rx="24" fill="white"/>
</g>
<path d="M77.2643 30.738L100.506 53.9794C101.58 55.0534 101.58 56.8148 100.506 57.9103C99.4318 58.9843 97.6919 59.0058 96.5964 57.9318L96.5749 57.9103C95.5009 56.8578 93.7825 56.8792 92.7085 57.9318L79.4768 71.1635C78.4028 72.2375 76.6629 72.2375 75.5889 71.1635C74.5149 70.0895 74.5149 68.3496 75.5889 67.2756L88.885 53.9794C89.9161 52.9484 89.9161 51.2515 88.885 50.2204L88.7562 50.0915C87.7251 49.0605 86.0282 49.0605 84.9972 50.0915L65.7725 69.3162C64.6985 70.3902 62.9586 70.3902 61.8846 69.3162C61.3476 68.7792 61.0898 68.0704 61.0898 67.383C61.0898 66.6741 61.3476 65.9868 61.8846 65.4498L81.0663 46.2681C81.6033 45.7311 81.8611 45.0223 81.8611 44.3349C81.8611 43.626 81.6033 42.9387 81.0663 42.4017C79.9923 41.3277 78.2524 41.3277 77.1784 42.4017L67.899 51.6811C66.825 52.7551 65.0851 52.7551 64.0111 51.6811C63.4741 51.1441 63.2164 50.4352 63.2164 49.7479C63.2164 49.039 63.4956 48.3517 64.0111 47.8147L73.355 38.4708C74.386 37.4398 74.386 35.7429 73.355 34.7118L73.312 34.6689C72.775 34.1319 72.4958 33.423 72.4958 32.7142C72.4958 32.0053 72.775 31.2965 73.312 30.7595C74.429 29.664 76.1903 29.664 77.2643 30.738Z" fill="#FE724C"/>
<path d="M102.072 29.1914C107.764 34.8836 108.43 43.6905 104.07 50.113C103.168 51.4448 101.277 51.6381 100.118 50.4996L80.764 31.1461C79.6256 30.0077 79.7974 28.1174 81.1506 27.1938C87.5732 22.8333 96.38 23.4992 102.072 29.1914Z" fill="#FE724C"/>
<path d="M107.071 28.0325C108.136 26.9671 108.136 25.2399 107.071 24.1746C106.006 23.1092 104.278 23.1092 103.213 24.1746C102.148 25.2399 102.148 26.9671 103.213 28.0325C104.278 29.0978 106.006 29.0978 107.071 28.0325Z" fill="#FE724C"/>
<rect x="54.9429" y="57.1569" width="6.5122" height="5.44227" rx="2.72114" transform="rotate(-45 54.9429 57.1569)" fill="#FE724C"/>
<rect x="53.1455" y="74.2334" width="6.5122" height="5.44227" rx="2.72114" transform="rotate(-45 53.1455 74.2334)" fill="#FE724C"/>
<rect x="66.627" y="76.031" width="6.5122" height="5.44227" rx="2.72114" transform="rotate(-45 66.627 76.031)" fill="#FE724C"/>
<defs>
<filter id="filter0_d_814_7048" x="0" y="0" width="163" height="163" filterUnits="userSpaceOnUse" color-interpolation-filters="sRGB">
<feFlood flood-opacity="0" result="BackgroundImageFix"/>
<feColorMatrix in="SourceAlpha" type="matrix" values="0 0 0 0 0 0 0 0 0 0 0 0 0 0 0 0 0 0 127 0" result="hardAlpha"/>
<feOffset dy="30"/>
<feGaussianBlur stdDeviation="17.5"/>
<feColorMatrix type="matrix" values="0 0 0 0 0.858333 0 0 0 0 0.284504 0 0 0 0 0.12875 0 0 0 0.5 0"/>
<feBlend mode="normal" in2="BackgroundImageFix" result="effect1_dropShadow_814_7048"/>
<feBlend mode="normal" in="SourceGraphic" in2="effect1_dropShadow_814_7048" result="shape"/>
</filter>
</defs>
</svg>
